<svg xmlns="http://www.w3.org/2000/svg" viewBox="0 0 512 512" width="512" height="512">
  <defs><clipPath id="r3"><rect width="512" height="512" rx="112"/></clipPath></defs>
  <rect width="512" height="512" rx="112" fill="#1a0530"/>
  <g clip-path="url(#r3)">
    <!-- grid lines vaporwave -->
    <line x1="0" y1="420" x2="512" y2="420" stroke="#ff2d9b" stroke-width="2" opacity="0.4"/>
    <line x1="0" y1="460" x2="512" y2="460" stroke="#ff2d9b" stroke-width="1" opacity="0.3"/>
    <!-- pixel note stem -->
    <rect x="220" y="130" width="20" height="120" fill="#ff2d9b"/>
    <!-- pixel note head -->
    <rect x="164" y="230" width="72" height="56" rx="6" fill="#ff2d9b"/>
    <!-- second note -->
    <rect x="295" y="155" width="20" height="110" fill="#b84fff"/>
    <rect x="239" y="245" width="72" height="56" rx="6" fill="#b84fff"/>
    <!-- pixel dots decoration -->
    <rect x="140" y="130" width="12" height="12" fill="#ff2d9b" opacity="0.6"/>
    <rect x="158" y="115" width="12" height="12" fill="#ff2d9b" opacity="0.4"/>
    <rect x="340" y="145" width="12" height="12" fill="#b84fff" opacity="0.6"/>
    <rect x="360" y="130" width="12" height="12" fill="#b84fff" opacity="0.4"/>
    <!-- waveform bars -->
    <rect x="128" y="355" width="16" height="30" rx="3" fill="#ff2d9b" opacity="0.8"/>
    <rect x="152" y="340" width="16" height="50" rx="3" fill="#ff2d9b"/>
    <rect x="176" y="348" width="16" height="36" rx="3" fill="#ff2d9b" opacity="0.9"/>
    <rect x="200" y="332" width="16" height="60" rx="3" fill="#b84fff"/>
    <rect x="224" y="342" width="16" height="44" rx="3" fill="#b84fff" opacity="0.9"/>
    <rect x="248" y="335" width="16" height="56" rx="3" fill="#ff2d9b"/>
    <rect x="272" y="345" width="16" height="38" rx="3" fill="#ff2d9b" opacity="0.9"/>
    <rect x="296" y="338" width="16" height="52" rx="3" fill="#b84fff"/>
    <rect x="320" y="348" width="16" height="36" rx="3" fill="#b84fff" opacity="0.8"/>
    <rect x="344" y="355" width="16" height="28" rx="3" fill="#ff2d9b" opacity="0.7"/>
    <rect x="368" y="343" width="16" height="44" rx="3" fill="#ff2d9b" opacity="0.6"/>
  </g>
</svg>
